<?xml version="1.0" encoding="UTF-8" standalone="no"?>
<!DOCTYPE svg PUBLIC "-//W3C//DTD SVG 1.1//EN"
 "http://www.w3.org/Graphics/SVG/1.1/DTD/svg11.dtd">
<!-- Generated by graphviz version 2.38.0 (20140413.2041)
 -->
<!-- Title: G Pages: 1 -->
<svg width="436pt" height="634pt"
 viewBox="0.00 0.00 436.00 634.00" xmlns="http://www.w3.org/2000/svg" xmlns:xlink="http://www.w3.org/1999/xlink">
<g id="graph0" class="graph" transform="scale(1 1) rotate(0) translate(4 630)">
<title>G</title>
<polygon fill="white" stroke="none" points="-4,4 -4,-630 432,-630 432,4 -4,4"/>
<g id="clust1" class="cluster"><title>cluster_Global</title>
<path fill="none" stroke="gray" d="M20,-8C20,-8 408,-8 408,-8 414,-8 420,-14 420,-20 420,-20 420,-606 420,-606 420,-612 414,-618 408,-618 408,-618 20,-618 20,-618 14,-618 8,-612 8,-606 8,-606 8,-20 8,-20 8,-14 14,-8 20,-8"/>
<text text-anchor="middle" x="214" y="-605.2" font-family="Times,serif" font-size="11.00" fill="gray">Global</text>
</g>
<g id="clust2" class="cluster"><title>cluster_\agilman</title>
<path fill="none" stroke="gray" d="M28,-16C28,-16 400,-16 400,-16 406,-16 412,-22 412,-28 412,-28 412,-578 412,-578 412,-584 406,-590 400,-590 400,-590 28,-590 28,-590 22,-590 16,-584 16,-578 16,-578 16,-28 16,-28 16,-22 22,-16 28,-16"/>
<text text-anchor="middle" x="214" y="-577.2" font-family="Times,serif" font-size="11.00" fill="gray">agilman</text>
</g>
<g id="clust3" class="cluster"><title>cluster_\agilman\a2</title>
<path fill="none" stroke="gray" d="M36,-24C36,-24 392,-24 392,-24 398,-24 404,-30 404,-36 404,-36 404,-550 404,-550 404,-556 398,-562 392,-562 392,-562 36,-562 36,-562 30,-562 24,-556 24,-550 24,-550 24,-36 24,-36 24,-30 30,-24 36,-24"/>
<text text-anchor="middle" x="214" y="-549.2" font-family="Times,serif" font-size="11.00" fill="gray">a2</text>
</g>
<g id="clust4" class="cluster"><title>cluster_\agilman\a2\model</title>
<path fill="none" stroke="gray" d="M59,-192C59,-192 384,-192 384,-192 390,-192 396,-198 396,-204 396,-204 396,-522 396,-522 396,-528 390,-534 384,-534 384,-534 59,-534 59,-534 53,-534 47,-528 47,-522 47,-522 47,-204 47,-204 47,-198 53,-192 59,-192"/>
<text text-anchor="middle" x="221.5" y="-521.2" font-family="Times,serif" font-size="11.00" fill="gray">model</text>
</g>
<g id="clust5" class="cluster"><title>cluster_\agilman\a2\view</title>
<path fill="none" stroke="gray" d="M269,-112C269,-112 315,-112 315,-112 321,-112 327,-118 327,-124 327,-124 327,-172 327,-172 327,-178 321,-184 315,-184 315,-184 269,-184 269,-184 263,-184 257,-178 257,-172 257,-172 257,-124 257,-124 257,-118 263,-112 269,-112"/>
<text text-anchor="middle" x="292" y="-171.2" font-family="Times,serif" font-size="11.00" fill="gray">view</text>
</g>
<g id="clust6" class="cluster"><title>cluster_\agilman\a2\controller</title>
<path fill="none" stroke="gray" d="M44,-32C44,-32 347,-32 347,-32 353,-32 359,-38 359,-44 359,-44 359,-92 359,-92 359,-98 353,-104 347,-104 347,-104 44,-104 44,-104 38,-104 32,-98 32,-92 32,-92 32,-44 32,-44 32,-38 38,-32 44,-32"/>
<text text-anchor="middle" x="195.5" y="-91.2" font-family="Times,serif" font-size="11.00" fill="gray">controller</text>
</g>
<!-- \\agilman\\a2\\model\\AccountCollectionModel -->
<g id="node1" class="node"><title>\\agilman\\a2\\model\\AccountCollectionModel</title>
<polygon fill="none" stroke="black" points="374.5,-506 209.5,-506 209.5,-470 374.5,-470 374.5,-506"/>
<text text-anchor="middle" x="292" y="-485.2" font-family="Courier,monospace" font-size="11.00">AccountCollectionModel</text>
</g>
<!-- \\agilman\\a2\\model\\Model -->
<g id="node2" class="node"><title>\\agilman\\a2\\model\\Model</title>
<polygon fill="none" stroke="black" points="109,-371 55,-371 55,-335 109,-335 109,-371"/>
<text text-anchor="middle" x="82" y="-350.2" font-family="Courier,monospace" font-size="11.00">Model</text>
</g>
<!-- \\agilman\\a2\\model\\AccountCollectionModel&#45;&gt;\\agilman\\a2\\model\\Model -->
<g id="edge1" class="edge"><title>\\agilman\\a2\\model\\AccountCollectionModel&#45;&gt;\\agilman\\a2\\model\\Model</title>
<path fill="none" stroke="black" d="M214.453,-469.849C208.044,-467.258 201.804,-464.322 196,-461 158.758,-439.684 124.411,-403.496 103.591,-378.941"/>
<polygon fill="none" stroke="black" points="106.151,-376.546 97.0643,-371.098 100.77,-381.024 106.151,-376.546"/>
</g>
<!-- \\agilman\\a2\\model\\TransactionCollectionModel -->
<g id="node3" class="node"><title>\\agilman\\a2\\model\\TransactionCollectionModel</title>
<polygon fill="none" stroke="black" points="388,-452 196,-452 196,-416 388,-416 388,-452"/>
<text text-anchor="middle" x="292" y="-431.2" font-family="Courier,monospace" font-size="11.00">TransactionCollectionModel</text>
</g>
<!-- \\agilman\\a2\\model\\TransactionCollectionModel&#45;&gt;\\agilman\\a2\\model\\Model -->
<g id="edge2" class="edge"><title>\\agilman\\a2\\model\\TransactionCollectionModel&#45;&gt;\\agilman\\a2\\model\\Model</title>
<path fill="none" stroke="black" d="M222.31,-415.974C213.383,-413.195 204.42,-410.182 196,-407 169.305,-396.911 140.28,-382.973 118.331,-371.784"/>
<polygon fill="none" stroke="black" points="119.878,-368.644 109.385,-367.177 116.673,-374.867 119.878,-368.644"/>
</g>
<!-- \\agilman\\a2\\model\\UserCollectionModel -->
<g id="node4" class="node"><title>\\agilman\\a2\\model\\UserCollectionModel</title>
<polygon fill="none" stroke="black" points="364.5,-398 219.5,-398 219.5,-362 364.5,-362 364.5,-398"/>
<text text-anchor="middle" x="292" y="-377.2" font-family="Courier,monospace" font-size="11.00">UserCollectionModel</text>
</g>
<!-- \\agilman\\a2\\model\\UserCollectionModel&#45;&gt;\\agilman\\a2\\model\\Model -->
<g id="edge3" class="edge"><title>\\agilman\\a2\\model\\UserCollectionModel&#45;&gt;\\agilman\\a2\\model\\Model</title>
<path fill="none" stroke="black" d="M219.418,-370.708C185.553,-366.312 146.592,-361.255 119,-357.673"/>
<polygon fill="none" stroke="black" points="119.384,-354.194 109.016,-356.377 118.482,-361.135 119.384,-354.194"/>
</g>
<!-- \\agilman\\a2\\model\\UserModel -->
<g id="node5" class="node"><title>\\agilman\\a2\\model\\UserModel</title>
<polygon fill="none" stroke="black" points="330.5,-344 253.5,-344 253.5,-308 330.5,-308 330.5,-344"/>
<text text-anchor="middle" x="292" y="-323.2" font-family="Courier,monospace" font-size="11.00">UserModel</text>
</g>
<!-- \\agilman\\a2\\model\\UserModel&#45;&gt;\\agilman\\a2\\model\\Model -->
<g id="edge4" class="edge"><title>\\agilman\\a2\\model\\UserModel&#45;&gt;\\agilman\\a2\\model\\Model</title>
<path fill="none" stroke="black" d="M253.333,-330.889C215.237,-335.835 156.762,-343.425 119.201,-348.301"/>
<polygon fill="none" stroke="black" points="118.661,-344.841 109.195,-349.6 119.563,-351.783 118.661,-344.841"/>
</g>
<!-- \\agilman\\a2\\model\\TransactionModel -->
<g id="node6" class="node"><title>\\agilman\\a2\\model\\TransactionModel</title>
<polygon fill="none" stroke="black" points="354.5,-290 229.5,-290 229.5,-254 354.5,-254 354.5,-290"/>
<text text-anchor="middle" x="292" y="-269.2" font-family="Courier,monospace" font-size="11.00">TransactionModel</text>
</g>
<!-- \\agilman\\a2\\model\\TransactionModel&#45;&gt;\\agilman\\a2\\model\\Model -->
<g id="edge5" class="edge"><title>\\agilman\\a2\\model\\TransactionModel&#45;&gt;\\agilman\\a2\\model\\Model</title>
<path fill="none" stroke="black" d="M229.434,-287.854C218.201,-291.21 206.666,-294.969 196,-299 169.305,-309.089 140.28,-323.027 118.331,-334.216"/>
<polygon fill="none" stroke="black" points="116.673,-331.133 109.385,-338.823 119.878,-337.356 116.673,-331.133"/>
</g>
<!-- \\agilman\\a2\\model\\AccountModel -->
<g id="node7" class="node"><title>\\agilman\\a2\\model\\AccountModel</title>
<polygon fill="none" stroke="black" points="341,-236 243,-236 243,-200 341,-200 341,-236"/>
<text text-anchor="middle" x="292" y="-215.2" font-family="Courier,monospace" font-size="11.00">AccountModel</text>
</g>
<!-- \\agilman\\a2\\model\\AccountModel&#45;&gt;\\agilman\\a2\\model\\Model -->
<g id="edge7" class="edge"><title>\\agilman\\a2\\model\\AccountModel&#45;&gt;\\agilman\\a2\\model\\Model</title>
<path fill="none" stroke="black" d="M242.8,-226.875C227.217,-230.982 210.286,-236.823 196,-245 158.758,-266.316 124.411,-302.504 103.591,-327.059"/>
<polygon fill="none" stroke="black" points="100.77,-324.976 97.0643,-334.902 106.151,-329.454 100.77,-324.976"/>
</g>
<!-- \\agilman\\a2\\view\\View -->
<g id="node8" class="node"><title>\\agilman\\a2\\view\\View</title>
<polygon fill="none" stroke="black" points="319,-156 265,-156 265,-120 319,-120 319,-156"/>
<text text-anchor="middle" x="292" y="-135.2" font-family="Courier,monospace" font-size="11.00">View</text>
</g>
<!-- \\agilman\\a2\\controller\\Controller -->
<g id="node9" class="node"><title>\\agilman\\a2\\controller\\Controller</title>
<polygon fill="none" stroke="black" points="124,-76 40,-76 40,-40 124,-40 124,-76"/>
<text text-anchor="middle" x="82" y="-55.2" font-family="Courier,monospace" font-size="11.00">Controller</text>
</g>
<!-- \\agilman\\a2\\controller\\LoginController -->
<g id="node10" class="node"><title>\\agilman\\a2\\controller\\LoginController</title>
<polygon fill="none" stroke="black" points="351,-76 233,-76 233,-40 351,-40 351,-76"/>
<text text-anchor="middle" x="292" y="-55.2" font-family="Courier,monospace" font-size="11.00">LoginController</text>
</g>
<!-- \\agilman\\a2\\controller\\LoginController&#45;&gt;\\agilman\\a2\\controller\\Controller -->
<g id="edge6" class="edge"><title>\\agilman\\a2\\controller\\LoginController&#45;&gt;\\agilman\\a2\\controller\\Controller</title>
<path fill="none" stroke="black" d="M232.784,-58C201.822,-58 164.095,-58 134.251,-58"/>
<polygon fill="none" stroke="black" points="134.048,-54.5001 124.048,-58 134.048,-61.5001 134.048,-54.5001"/>
</g>
</g>
</svg>
